<?xml version="1.0" encoding="UTF-8"?>
<svg width="28px" height="27px" viewBox="0 0 28 27" version="1.1" xmlns="http://www.w3.org/2000/svg" xmlns:xlink="http://www.w3.org/1999/xlink">
    <!-- Generator: Sketch 43.2 (39069) - http://www.bohemiancoding.com/sketch -->
    <title>MySQL</title>
    <desc>Created with Sketch.</desc>
    <defs></defs>
    <g id="Signed-IN" stroke="none" stroke-width="1" fill="none" fill-rule="evenodd">
        <g id="sizing-test-run-new" transform="translate(-144.000000, -306.000000)" fill="#005C7B">
            <g id="MySQL" transform="translate(144.000000, 306.000000)">
                <path d="M25.6112392,20.8245952 C24.1060331,20.7874991 22.9580446,20.9179605 21.9606189,21.3456072 C21.6784719,21.4568954 21.245762,21.4568954 21.1892483,21.8103499 C21.339811,21.9591509 21.3773463,22.2009005 21.4903738,22.405554 C21.7349856,22.7773482 22.1301602,23.2796038 22.4877995,23.539693 C22.8639956,23.8377118 23.2591702,24.1348971 23.6733233,24.3954031 C24.4257155,24.8418062 25.2535999,25.0835557 25.9499,25.5299588 C26.3826099,25.790048 26.796763,26.1247461 27.2109161,26.4223482 C27.3990141,26.5711492 27.5495769,26.7945592 27.7941887,26.8875077 L27.7941887,26.8504117 C27.6621827,26.6828542 27.6246474,26.4411046 27.5120416,26.2552075 C27.3235218,26.0693105 27.1354238,25.8829966 26.9473258,25.6970995 C26.4015884,24.9906072 25.7052882,24.358307 24.9714528,23.8377118 C24.3881802,23.4284048 23.0710722,22.8519571 22.8264604,22.1821441 C22.8074819,22.1638045 22.7885034,22.1638045 22.7885034,22.145048 C23.2026564,22.0891955 23.69188,21.9408113 24.0684979,21.847446 C24.7078625,21.6803053 25.2915569,21.7174014 25.9499,21.5498439 C26.2510256,21.4568954 26.5521512,21.3827033 26.8532767,21.2897547 L26.8532767,21.1221973 C26.5146159,20.7874991 26.2885609,20.3227564 25.9123648,20.0251544 C24.9528961,19.2069571 23.8989566,18.4070995 22.8264604,17.7377033 C22.2242092,17.3471527 21.4903738,17.1054031 20.8505874,16.7890446 C20.6435109,16.6960961 20.2673148,16.6406604 20.116752,16.4543465 C19.7780912,16.0454563 19.6085499,15.5061046 19.3453814,15.0226055 C18.799644,13.9809983 18.2724634,12.865199 17.8022183,11.7864957 C17.4825359,11.061247 17.2564809,10.3359983 16.8613063,9.66660206 C14.9044119,6.5051012 12.8155114,4.58944425 9.56006573,2.71130017 C8.86418732,2.32074957 8.03630289,2.15360892 7.1519047,1.9489554 C6.68123785,1.91144254 6.21099274,1.89310292 5.74032589,1.85600686 C5.45817883,1.74430189 5.15705327,1.39084734 4.8749062,1.22370669 C3.80240997,0.553893654 1.03618787,-0.914943396 0.245838696,1.01905317 C-0.262363412,2.22780103 0.998652609,3.41779245 1.44991921,4.031753 C1.77002328,4.45939966 2.16519786,4.9428988 2.39083117,5.42639794 C2.54139395,5.74275643 2.56037245,6.05869811 2.69195673,6.39339623 C3.0120608,7.23034991 3.27522936,8.14149571 3.67040394,8.90425729 C3.87748049,9.29439108 4.10311379,9.70369811 4.36670409,10.0571527 C4.51726688,10.2618062 4.79941394,10.3547547 4.83737094,10.6894528 C4.57378064,11.061247 4.55480214,11.6193551 4.40423935,12.0840978 C3.74589621,14.1856518 3.99050801,16.770705 4.96895522,18.3329074 C5.27008079,18.7976501 5.96638094,19.8205009 6.94482815,19.4299503 C7.79126934,19.0764957 7.6031713,18.0353053 7.8477831,17.0866467 C7.90429686,16.8824099 7.8667616,16.7336089 7.97978913,16.5848079 L7.97978913,16.6219039 C8.22440093,17.1424991 8.48756949,17.6447547 8.7511598,18.1465935 C9.31587567,19.0581561 10.3318581,20.0251544 11.1972778,20.6574545 C11.6299877,20.9921527 11.987627,21.5686003 12.5708996,21.7544974 L12.5708996,21.7174014 L12.5148076,21.7174014 C12.4017801,21.5498439 12.2322388,21.4756518 12.1006545,21.3456072 C11.7619937,21.0109091 11.3853759,20.6016021 11.1032288,20.2298079 C10.3318581,19.1882007 9.63555799,18.0353053 8.9957716,16.8448971 C8.69464604,16.2684494 8.43105573,15.6361492 8.18686567,15.0597015 C8.09239491,14.8367084 8.09239491,14.5020103 7.88531836,14.3715489 C7.6031713,14.7991955 7.20799671,15.1526501 6.98236341,15.6549057 C6.64370259,16.4543465 6.58718883,17.4401012 6.4741613,18.4441955 C6.39909078,18.4817084 6.41764754,18.462952 6.38011228,18.500048 C5.7782829,18.351247 5.57120635,17.7377033 5.34515131,17.2171081 C4.79941394,15.8966552 4.68638642,13.7763448 5.17603177,12.2516552 C5.30761605,11.8611046 5.89088868,10.6336003 5.64627687,10.2618062 C5.53324935,9.90835163 5.17603177,9.68535849 4.96895522,9.40609605 C4.70536492,9.07139794 4.46075312,8.62499485 4.27265507,8.23444425 C3.82096673,7.19325386 3.61431193,6.03994168 3.12466658,4.99875129 C2.88005477,4.49649571 2.50385869,3.99465695 2.18375462,3.56659348 C1.82653704,3.06475472 1.43136245,2.71130017 1.14879365,2.11609605 C1.05474463,1.91144254 0.923160345,1.57674443 1.05474463,1.35375129 C1.11125839,1.20495026 1.16777215,1.14909777 1.31833493,1.09324528 C1.56294673,0.907348199 2.25924688,1.1678542 2.52241545,1.26080274 C3.20015884,1.5584048 3.78343147,1.818494 4.36670409,2.2090446 C4.64885116,2.39535849 4.93141996,2.74839623 5.27008079,2.84134477 L5.64627687,2.84134477 C6.248528,2.97180617 6.92584965,2.87844082 7.49056552,3.04599828 C8.48756949,3.34360034 9.39094619,3.80834305 10.2002739,4.32935506 C12.6839272,5.87280103 14.6973353,8.0673036 16.0899356,10.6894528 C16.3155689,11.1170995 16.409618,11.5076501 16.5981378,11.9540532 C16.9928906,12.865199 17.5010927,13.7951012 17.8962673,14.6691509 C18.2724634,15.5619571 18.667638,16.4543465 19.2133753,17.1795952 C19.5145009,17.5701458 20.6435109,17.7747993 21.151713,17.9794528 C21.5089306,18.1282539 22.0926249,18.2953945 22.4312858,18.500048 C23.0896289,18.872259 23.7108586,19.3370017 24.3316664,19.7646484 C24.632792,19.9693019 25.573704,20.4340446 25.6112392,20.8245952" id="Fill-4"></path>
                <path d="M6.41764754,4.66405317 C6.11694372,4.66405317 5.89088868,4.70114923 5.64627687,4.75700172 L5.64627687,4.79409777 L5.70279063,4.79409777 C5.85335342,5.09169983 6.11694372,5.29635334 6.30504176,5.55644254 C6.43662604,5.8540446 6.58718883,6.15164666 6.71877311,6.44924871 C6.73775161,6.43090909 6.75630837,6.41215266 6.77528687,6.39339623 C7.03887717,6.22625557 7.1519047,5.92865352 7.1519047,5.463494 C7.05743393,5.35220583 7.03887717,5.22174443 6.94482815,5.09169983 C6.81282213,4.90580274 6.58718883,4.8128542 6.41764754,4.66405317" id="Fill-5"></path>
            </g>
        </g>
    </g>
</svg>