<?xml version="1.0" encoding="UTF-8"?>
<svg width="41px" height="41px" viewBox="0 0 41 41" version="1.1" xmlns="http://www.w3.org/2000/svg" xmlns:xlink="http://www.w3.org/1999/xlink">
    <!-- Generator: Sketch 43.2 (39069) - http://www.bohemiancoding.com/sketch -->
    <title>noun_300583_cc</title>
    <desc>Created with Sketch.</desc>
    <defs></defs>
    <g id="Signed-IN" stroke="none" stroke-width="1" fill="none" fill-rule="evenodd">
        <g id="benchmark-test-3-run-copy" transform="translate(-988.000000, -225.000000)" fill-rule="nonzero" fill="#5677FA">
            <g id="noun_300583_cc" transform="translate(988.000000, 225.000000)">
                <g id="Group">
                    <path d="M34.9638889,17.7359551 C34.9638889,7.85541573 27.3848111,0.115168539 17.7097222,0.115168539 C8.11708889,0.115168539 0.312966667,7.94202247 0.312966667,17.5632022 C0.312966667,27.184382 8.04055556,35.011236 17.5388889,35.011236 C18.6709444,35.011236 19.5888889,34.0829775 19.5888889,32.9382022 L19.5888889,19.8089888 L32.9138889,19.8089888 C34.0459444,19.8089888 34.9638889,18.8807303 34.9638889,17.7359551 Z M17.5388889,15.6629213 C16.4068333,15.6629213 15.4888889,16.5911798 15.4888889,17.7359551 L15.4888889,30.6951798 C9.30608889,29.664191 4.41342222,24.0688427 4.41342222,17.5632022 C4.41342222,10.2283483 10.3780111,4.26123596 17.7101778,4.26123596 C24.3968222,4.26123596 29.7701,9.12503371 30.7162889,15.6629213 L17.5388889,15.6629213 Z" id="Shape"></path>
                    <path d="M38.7222222,21.6516854 L23.4611111,21.6516854 C22.3290556,21.6516854 21.4111111,22.5799438 21.4111111,23.7247191 L21.4111111,38.9269663 C21.4111111,40.0717416 22.3290556,41 23.4611111,41 C33.0063667,41 40.7722222,33.2505393 40.7722222,23.7247191 C40.7722222,22.5799438 39.8542778,21.6516854 38.7222222,21.6516854 Z M25.5111111,36.7037528 L25.5111111,25.7977528 L36.5155111,25.7977528 C35.6444889,31.4797079 31.2338,35.8528876 25.5111111,36.7037528 Z" id="Shape"></path>
                </g>
            </g>
        </g>
    </g>
</svg>