<?xml version="1.0" encoding="UTF-8"?>
<svg width="46px" height="46px" viewBox="0 0 46 46" version="1.1" xmlns="http://www.w3.org/2000/svg" xmlns:xlink="http://www.w3.org/1999/xlink">
    <!-- Generator: Sketch 43.2 (39069) - http://www.bohemiancoding.com/sketch -->
    <title>noun_300576_cc</title>
    <desc>Created with Sketch.</desc>
    <defs></defs>
    <g id="Signed-IN" stroke="none" stroke-width="1" fill="none" fill-rule="evenodd">
        <g id="benchmark-test-2-config" transform="translate(-583.000000, -224.000000)" fill-rule="nonzero" fill="#EEF0FA">
            <g id="noun_300576_cc" transform="translate(583.000000, 224.000000)">
                <g id="Group">
                    <path d="M23,16.6157872 C19.4800213,16.6157872 16.6157872,19.4800213 16.6157872,23 C16.6157872,26.5199787 19.4800213,29.3842128 23,29.3842128 C26.5199787,29.3842128 29.3842128,26.5199787 29.3842128,23 C29.3842128,19.4800213 26.5199787,16.6157872 23,16.6157872 Z M23,24.4905957 C22.1778723,24.4905957 21.5094043,23.8221277 21.5094043,23 C21.5094043,22.1778723 22.1778723,21.5094043 23,21.5094043 C23.8221277,21.5094043 24.4905957,22.1778723 24.4905957,23 C24.4905957,23.8221277 23.8221277,24.4905957 23,24.4905957 Z" id="Shape"></path>
                    <path d="M23,8.45274468 C14.9788723,8.45274468 8.45323404,14.978383 8.45323404,23 C8.45323404,31.021617 14.9788723,37.5472553 23,37.5472553 C31.0211277,37.5472553 37.546766,31.021617 37.546766,23 C37.546766,14.978383 31.0211277,8.45274468 23,8.45274468 Z M23,32.6536383 C17.6772128,32.6536383 13.3468511,28.3227872 13.3468511,23 C13.3468511,17.6772128 17.6772128,13.3463617 23,13.3463617 C28.3227872,13.3463617 32.6531489,17.6772128 32.6531489,23 C32.6531489,28.3227872 28.3227872,32.6536383 23,32.6536383 Z" id="Shape"></path>
                    <path d="M23,6.85106383 C24.3511277,6.85106383 25.4468085,5.75587234 25.4468085,4.40425532 L25.4468085,2.44680851 C25.4468085,1.09519149 24.3511277,0 23,0 C21.6488723,0 20.5531915,1.09519149 20.5531915,2.44680851 L20.5531915,4.40425532 C20.5531915,5.75587234 21.6488723,6.85106383 23,6.85106383 Z" id="Shape"></path>
                    <path d="M23,39.1489362 C21.6488723,39.1489362 20.5531915,40.2441277 20.5531915,41.5957447 L20.5531915,43.5531915 C20.5531915,44.9048085 21.6488723,46 23,46 C24.3511277,46 25.4468085,44.9048085 25.4468085,43.5531915 L25.4468085,41.5957447 C25.4468085,40.2441277 24.3511277,39.1489362 23,39.1489362 Z" id="Shape"></path>
                    <path d="M4.40425532,20.5531915 L2.44680851,20.5531915 C1.09568085,20.5531915 0,21.648383 0,23 C0,24.351617 1.09568085,25.4468085 2.44680851,25.4468085 L4.40425532,25.4468085 C5.75538298,25.4468085 6.85106383,24.351617 6.85106383,23 C6.85106383,21.648383 5.75538298,20.5531915 4.40425532,20.5531915 Z" id="Shape"></path>
                    <path d="M43.5531915,20.5531915 L41.5957447,20.5531915 C40.244617,20.5531915 39.1489362,21.648383 39.1489362,23 C39.1489362,24.351617 40.244617,25.4468085 41.5957447,25.4468085 L43.5531915,25.4468085 C44.9043191,25.4468085 46,24.351617 46,23 C46,21.648383 44.9043191,20.5531915 43.5531915,20.5531915 Z" id="Shape"></path>
                </g>
            </g>
        </g>
    </g>
</svg>
