<?xml version="1.0" encoding="UTF-8"?>
<svg width="24px" height="24px" viewBox="0 0 24 24" version="1.1" xmlns="http://www.w3.org/2000/svg" xmlns:xlink="http://www.w3.org/1999/xlink">
    <!-- Generator: Sketch 48.1 (47250) - http://www.bohemiancoding.com/sketch -->
    <title>noun_1368387_cc</title>
    <desc>Created with Sketch.</desc>
    <defs></defs>
    <g id="sizing_analyzer_container_sizing-copy-6" stroke="none" stroke-width="1" fill="none" fill-rule="evenodd" transform="translate(-63.000000, -245.000000)">
        <g id="noun_1368387_cc" transform="translate(63.000000, 245.000000)" fill="#B9BACA" fill-rule="nonzero">
            <path d="M23.7,0 L0.3,0 C0.1344,0 0,0.1341 0,0.3 L0,23.7 C0,23.8659 0.1344,24 0.3,24 L23.7,24 C23.8656,24 24,23.8659 24,23.7 L24,0.3 C24,0.1341 23.8656,0 23.7,0 Z M23.4,23.4 L0.6,23.4 L0.6,0.6 L23.4,0.6 L23.4,23.4 Z" id="Shape"></path>
            <path d="M3.2686487,21.389313 C3.12035462,21.389313 3,21.5258015 3,21.6946565 C3,21.8635115 3.12035462,22 3.2686487,22 L5.7313513,22 C5.87964538,22 6,21.8635115 6,21.6946565 C6,21.5258015 5.87964538,21.389313 5.7313513,21.389313 L4.76878302,21.389313 L4.76878302,2.61068702 L5.7313513,2.61068702 C5.87964538,2.61068702 6,2.47419847 6,2.30534351 C6,2.13648855 5.87964538,2 5.7313513,2 L3.2686487,2 C3.12035462,2 3,2.13648855 3,2.30534351 C3,2.47419847 3.12035462,2.61068702 3.2686487,2.61068702 L4.23121698,2.61068702 L4.23121698,21.389313 L3.2686487,21.389313 Z" id="Shape"></path>
            <path d="M10.2688933,21.389313 C10.1206125,21.389313 10.0002686,21.5258015 10.0002686,21.6946565 C10.0002686,21.8635115 10.1206125,22 10.2688933,22 L12.7313754,22 C12.8796562,22 13,21.8635115 13,21.6946565 C13,21.5258015 12.8796562,21.389313 12.7313754,21.389313 L11.7686246,21.389313 L11.7686246,2.61068702 L12.7311067,2.61068702 C12.8793875,2.61068702 12.9997314,2.47419847 12.9997314,2.30534351 C12.9997314,2.13648855 12.8793875,2 12.7311067,2 L10.2686246,2 C10.1203438,2 10,2.13648855 10,2.30534351 C10,2.47419847 10.1203438,2.61068702 10.2686246,2.61068702 L11.2313754,2.61068702 L11.2313754,21.389313 L10.2688933,21.389313 Z" id="Shape"></path>
            <path d="M18.2686487,21.389313 C18.1203546,21.389313 18,21.5258015 18,21.6946565 C18,21.8635115 18.1203546,22 18.2686487,22 L20.7313513,22 C20.8796454,22 21,21.8635115 21,21.6946565 C21,21.5258015 20.8796454,21.389313 20.7313513,21.389313 L19.768783,21.389313 L19.768783,2.61068702 L20.7313513,2.61068702 C20.8796454,2.61068702 21,2.47419847 21,2.30534351 C21,2.13648855 20.8796454,2 20.7313513,2 L18.2686487,2 C18.1203546,2 18,2.13648855 18,2.30534351 C18,2.47419847 18.1203546,2.61068702 18.2686487,2.61068702 L19.231217,2.61068702 L19.231217,21.389313 L18.2686487,21.389313 Z" id="Shape"></path>
        </g>
    </g>
</svg>