<?xml version="1.0" encoding="UTF-8"?>
<svg width="16px" height="19px" viewBox="0 0 16 19" version="1.1" xmlns="http://www.w3.org/2000/svg" xmlns:xlink="http://www.w3.org/1999/xlink">
    <!-- Generator: Sketch 48.1 (47250) - http://www.bohemiancoding.com/sketch -->
    <title>noun_830438_cc</title>
    <desc>Created with Sketch.</desc>
    <defs></defs>
    <g id="sizing_analyzer_container_sizing-copy-6" stroke="none" stroke-width="1" fill="none" fill-rule="evenodd" transform="translate(-1218.000000, -212.000000)">
        <g id="noun_830438_cc" transform="translate(1218.000000, 212.000000)" fill="#3778FA" fill-rule="nonzero">
            <g id="Group">
                <g transform="translate(0.000000, 5.764045)" id="Rectangle-path">
                    <rect x="0.151789474" y="5.93824719" width="3.92547368" height="6.91664045"></rect>
                    <rect x="11.9288421" y="0.0860337079" width="3.92547368" height="12.7690674"></rect>
                    <rect x="6.03978947" y="3.27824719" width="3.92610526" height="9.57664045"></rect>
                </g>
                <path d="M15.4229474,0.167370787 L12.2143158,0.480764045 L12.3183158,1.5921573 L13.6292632,1.46470787 L11.8625263,3.52759551 L10.9263158,3.23192135 L9.54526316,2.79577528 L8.21768421,4.23337079 L7.44252632,5.073 L5.81789474,4.45048315 C5.748,4.4408764 5.68547368,4.41653933 5.63263158,4.37982022 L5.22947368,4.22483146 L3.72610526,3.6492809 L2.52084211,4.86464045 L0.145684211,7.2605618 L0.990105263,8.1345618 L2.52105263,6.59001124 L3.76252632,5.33835955 L3.97747368,5.12146067 L4.02336842,5.07492135 L5.22926316,5.53689888 L7.76863158,6.50995506 L8.21831579,6.02321348 L9.45894737,4.67955056 L9.67515789,4.44535955 L9.90589474,4.19537079 L10.9267368,4.51794382 L12.2530526,4.93637079 L14.5231579,2.28576404 L14.6326316,3.45202247 L15.7204211,3.34592135 L15.4229474,0.167370787 Z" id="Shape"></path>
            </g>
        </g>
    </g>
</svg>