<?xml version="1.0" encoding="UTF-8"?>
<svg width="17px" height="22px" viewBox="0 0 17 22" version="1.1" xmlns="http://www.w3.org/2000/svg" xmlns:xlink="http://www.w3.org/1999/xlink">
    <!-- Generator: Sketch 48.1 (47250) - http://www.bohemiancoding.com/sketch -->
    <title>noun_654674_cc</title>
    <desc>Created with Sketch.</desc>
    <defs></defs>
    <g id="sizing_analyzer_container_sizing-copy-6" stroke="none" stroke-width="1" fill="none" fill-rule="evenodd" transform="translate(-67.000000, -187.000000)">
        <g id="noun_654674_cc" transform="translate(67.000000, 187.000000)" fill="#606175" fill-rule="nonzero">
            <g id="Group">
                <rect id="Rectangle-path" x="2.675" y="5.35333333" width="1" height="8.53111111"></rect>
                <path d="M3.15,5.81777778 C1.55,5.81777778 0.225,4.54666667 0.225,2.95777778 C0.225,1.36888889 1.55,0.122222222 3.15,0.122222222 C4.75,0.122222222 6.075,1.39333333 6.075,2.98222222 C6.075,4.57111111 4.75,5.81777778 3.15,5.81777778 Z M3.15,1.07555556 C2.075,1.07555556 1.2,1.93111111 1.2,2.98222222 C1.2,4.03333333 2.075,4.88888889 3.15,4.88888889 C4.225,4.88888889 5.1,4.03333333 5.1,2.98222222 C5.1,1.93111111 4.225,1.07555556 3.15,1.07555556 Z" id="Shape"></path>
                <path d="M13.85,5.81777778 C12.25,5.81777778 10.925,4.54666667 10.925,2.95777778 C10.925,1.36888889 12.25,0.122222222 13.85,0.122222222 C15.45,0.122222222 16.775,1.39333333 16.775,2.98222222 C16.775,4.57111111 15.45,5.81777778 13.85,5.81777778 Z M13.85,1.07555556 C12.775,1.07555556 11.9,1.93111111 11.9,2.98222222 C11.9,4.03333333 12.775,4.88888889 13.85,4.88888889 C14.925,4.88888889 15.8,4.03333333 15.8,2.98222222 C15.8,1.93111111 14.925,1.07555556 13.85,1.07555556 Z" id="Shape"></path>
                <path d="M3.15,21.9755556 C1.55,21.9755556 0.225,20.7044444 0.225,19.1155556 C0.225,17.5266667 1.525,16.2555556 3.15,16.2555556 C4.775,16.2555556 6.075,17.5266667 6.075,19.1155556 C6.075,20.7044444 4.75,21.9755556 3.15,21.9755556 Z M3.15,17.2088889 C2.075,17.2088889 1.2,18.0644444 1.2,19.1155556 C1.2,20.1666667 2.075,21.0222222 3.15,21.0222222 C4.225,21.0222222 5.1,20.1666667 5.1,19.1155556 C5.1,18.0644444 4.225,17.2088889 3.15,17.2088889 Z" id="Shape"></path>
                <path d="M3.625,16.72 L2.65,16.72 L2.65,13.8844444 C2.65,11.5133333 4.6,9.60666667 7.025,9.60666667 L9.95,9.60666667 C11.825,9.60666667 13.35,8.11555556 13.35,6.28222222 L13.35,5.35333333 L14.325,5.35333333 L14.325,6.28222222 C14.325,8.65333333 12.375,10.56 9.95,10.56 L7.05,10.56 C5.175,10.56 3.65,12.0511111 3.65,13.8844444 L3.625,16.72 Z" id="Shape"></path>
            </g>
        </g>
    </g>
</svg>