<?xml version="1.0" encoding="UTF-8"?>
<svg width="19px" height="20px" viewBox="0 0 19 20" version="1.1" xmlns="http://www.w3.org/2000/svg" xmlns:xlink="http://www.w3.org/1999/xlink">
    <!-- Generator: Sketch 48.1 (47250) - http://www.bohemiancoding.com/sketch -->
    <title>noun_565178_cc</title>
    <desc>Created with Sketch.</desc>
    <defs></defs>
    <g id="sizing_analyzer_container_sizing-copy-3" stroke="none" stroke-width="1" fill="none" fill-rule="evenodd" transform="translate(-67.000000, -126.000000)">
        <g id="noun_565178_cc" transform="translate(67.000000, 126.000000)" fill="#FFFFFF" fill-rule="nonzero">
            <g id="Group">
                <path d="M18.3294118,10.9685039 L18.3294118,10.3228346 C18.3294118,9.61023622 17.7426471,9.03149606 17.0201681,9.03149606 C16.5052521,9.03149606 16.0621849,9.33070866 15.8506303,9.75984252 L10.8172269,5.78740157 C11.0168067,5.51968504 11.1365546,5.19291339 11.1365546,4.83858268 L10.4819328,4.83858268 C10.4819328,5.04330709 10.4180672,5.22834646 10.3102941,5.38582677 L9.5,4.7480315 L8.69369748,5.38582677 C8.58592437,5.22834646 8.52205882,5.04330709 8.52205882,4.83858268 C8.52205882,4.30314961 8.96113445,3.87007874 9.5039916,3.87007874 L9.83130252,3.87007874 L9.83130252,2.57874016 L13.487605,2.57874016 L13.0485294,0 L6.32268908,0 L5.44852941,2.57874016 L9.17268908,2.57874016 L9.17268908,3.25590551 C8.4262605,3.40551181 7.86344538,4.05905512 7.86344538,4.83464567 C7.86344538,5.18897638 7.98319328,5.51574803 8.18277311,5.78346457 L3.14936975,9.75984252 C2.93781513,9.33070866 2.4947479,9.03149606 1.97983193,9.03149606 C1.25735294,9.03149606 0.670588235,9.61023622 0.670588235,10.3228346 L0.670588235,10.9685039 L0.0159663866,10.9685039 L0.0159663866,20 L18.9840336,20 L18.9840336,10.9685039 L18.3294118,10.9685039 Z M6.79369748,0.645669291 L12.4936975,0.645669291 L12.7132353,1.93700787 L6.35462185,1.93700787 L6.79369748,0.645669291 Z M16.3695378,10.3228346 C16.3695378,9.96850394 16.664916,9.67716535 17.0241597,9.67716535 C17.3834034,9.67716535 17.6787815,9.96456693 17.6787815,10.3228346 L17.6787815,10.9133858 L16.3695378,10.9133858 L16.3695378,10.3228346 Z M9.74747899,5.77165354 C9.67962185,5.79133858 9.45609244,5.83858268 9.24852941,5.77165354 L9.4960084,5.57480315 L9.74747899,5.77165354 Z M1.32521008,10.3228346 C1.32521008,9.96850394 1.62058824,9.67716535 1.97983193,9.67716535 C2.33907563,9.67716535 2.63445378,9.96456693 2.63445378,10.3228346 L2.63445378,10.9133858 L1.32521008,10.9133858 L1.32521008,10.3228346 Z M3.28508403,10.476378 L8.6737395,6.22440945 C9.36029412,6.6496063 10.0947479,6.38976378 10.3222689,6.22440945 L15.7109244,10.476378 L15.7109244,10.9645669 L3.28508403,10.9645669 L3.28508403,10.476378 Z M18.3294118,19.3543307 L0.670588235,19.3543307 L0.670588235,11.6141732 L18.3334034,11.6141732 L18.3334034,19.3543307 L18.3294118,19.3543307 Z" id="Shape"></path>
                <rect id="Rectangle-path" x="9.17268908" y="12.2598425" width="1" height="6.45275591"></rect>
                <rect id="Rectangle-path" x="5.90357143" y="12.2598425" width="1" height="6.45275591"></rect>
                <rect id="Rectangle-path" x="2.63046218" y="12.2598425" width="1" height="6.45275591"></rect>
                <rect id="Rectangle-path" x="15.714916" y="12.2598425" width="1" height="6.45275591"></rect>
                <rect id="Rectangle-path" x="12.4418067" y="12.2598425" width="1" height="6.45275591"></rect>
            </g>
        </g>
    </g>
</svg>